<svg version="1.2" xmlns="http://www.w3.org/2000/svg" viewBox="0 0 375 164" width="375" height="164">
	<title>4-svg</title>
	<defs>
		<clipPath clipPathUnits="userSpaceOnUse" id="cp1">
			<path d="m258 36h117v84h-117z"/>
		</clipPath>
		<clipPath clipPathUnits="userSpaceOnUse" id="cp2">
			<path d="m399.46 62.77l-94.71 68.7-46.24-63.74 94.71-68.7z"/>
		</clipPath>
		<clipPath clipPathUnits="userSpaceOnUse" id="cp3">
			<path d="m399.46 62.77l-142.06 103.05-46.24-63.74 142.06-103.05z"/>
		</clipPath>
		<clipPath clipPathUnits="userSpaceOnUse" id="cp4">
			<path d="m0 26h110v49h-110z"/>
		</clipPath>
		<clipPath clipPathUnits="userSpaceOnUse" id="cp5">
			<path d="m-26.52 29.21l111.15-36.53 24.6 74.81-111.15 36.53z"/>
		</clipPath>
		<clipPath clipPathUnits="userSpaceOnUse" id="cp6">
			<path d="m-26.52 29.21l166.73-54.8 24.59 74.81-166.72 54.8z"/>
		</clipPath>
	</defs>
	<style>
		.s0 { fill: #cf8c8a } 
		.s1 { fill: #7a504f } 
	</style>
	<g id="Layer" style="opacity: .4">
		<g id="Layer">
			<g id="Layer">
				<path id="Layer" fill-rule="evenodd" class="s0" d="m128.8 29.5c18.7-5 35.5 6.4 39.8 20.7-6.5 0-14.6 0.5-20.7 1.9 10.2-0.2 17.1 8.2 17.7 17.7 2.1 29.3-50.6 36-60.2 0.2-4.8-17.6 5.8-35.7 23.4-40.5zm-14.2 38.1c10.5 39.1 57.4 24.9 49.3-2.2-3-9.9-13.4-16.6-27-8.8-6.5 3.8-13 5.3-18.1 4.9-1.9-0.1-3.8-0.4-5.4-1.2q0.4 3.8 1.2 7.3zm14.5-37.1c-12.2 3.2-16.4 16.8-15.7 28.7 1.6 0.8 3.5 1.2 5.4 1.3 5 0.3 11.2-1 17.6-4.7 7.4-4.3 15.6-5.8 21.8-6.2-5.2-11.5-16-22.7-29.1-19.1z"/>
			</g>
		</g>
	</g>
	<g id="Layer" style="opacity: .4">
		<g id="Layer">
			<g id="Layer">
				<path id="Layer" class="s0" d="m271.6 53.9c0-12.2-3.2-25.7-17.9-25.7-9 0-15.2 8-18.6 15.4-2.4 5.3-4.3 11.9-5.4 20.2v-9.9c0-12.2-3-25.7-17.9-25.7-8.9 0-15 8-18.5 15.4-2.3 5.3-4.2 11.9-5.5 20.2v-35.1h-12.4v1.2c0.8 0 3.1 1.7 3.1 10.5v42c0 8.9-2.3 10.4-3.1 10.4v1.2h15.6v-1.2c-0.8 0-3.2-1.5-3.2-10.4 0-17.1 2.6-29.7 6.6-38.2 2.8-6.1 9.6-15.2 17.3-12.6 7.6 2.5 8.5 15.8 8.5 22.3v28.5c0 8.9-2.3 10.4-3.1 10.4v1.2h15.7v-1.2c-0.8 0-3.1-1.5-3.1-10.4 0-17.1 2.6-29.7 6.5-38.2 2.9-6.1 9.6-15.2 17.3-12.6 7.6 2.5 8.6 15.8 8.6 22.3v28.5c0 8.9-2.3 10.4-3.1 10.4v1.2h15.7v-1.2c-0.8 0-3.1-1.5-3.1-10.4z"/>
			</g>
		</g>
	</g>
	<g id="Layer">
		<g id="Layer">
			<g id="Layer">
				<path id="Layer" fill-rule="evenodd" class="s1" d="m126.9 27.6c18.7-5 35.5 6.4 39.8 20.7-6.5 0-14.6 0.4-20.7 1.9 10.1-0.2 17 8.2 17.7 17.6 2.1 29.4-50.6 36.1-60.3 0.3-4.7-17.6 5.9-35.8 23.5-40.5zm-14.2 38.1c10.5 39.1 57.4 24.9 49.3-2.2-3-9.9-13.4-16.7-27-8.8-6.5 3.8-13 5.3-18.1 4.9-1.9-0.2-3.8-0.4-5.5-1.2q0.4 3.8 1.3 7.3zm14.4-37.1c-12.1 3.2-16.3 16.8-15.7 28.7 1.7 0.8 3.6 1.2 5.5 1.3 5 0.3 11.2-1.1 17.6-4.7 7.4-4.3 15.5-5.8 21.8-6.2-5.2-11.6-16-22.7-29.2-19.1z"/>
			</g>
		</g>
	</g>
	<g id="Layer">
		<g id="Layer">
			<g id="Layer">
				<path id="Layer" class="s1" d="m269.6 52c0-12.2-3.1-25.7-17.8-25.7-9 0-15.2 7.9-18.6 15.4-2.4 5.3-4.3 11.9-5.4 20.2v-9.9c0-12.2-3-25.7-17.9-25.7-8.9 0-15 7.9-18.5 15.4-2.4 5.3-4.2 11.9-5.5 20.2v-35.1h-12.4v1.2c0.8 0 3.1 1.6 3.1 10.4v42c0 9-2.3 10.5-3.1 10.5v1.2h15.5v-1.2c-0.8 0-3.1-1.5-3.1-10.5 0-17 2.6-29.6 6.5-38.2 2.9-6.1 9.7-15.1 17.4-12.6 7.6 2.6 8.5 15.9 8.5 22.4v28.4c0 9-2.3 10.5-3.1 10.5v1.2h15.7v-1.2c-0.8 0-3.1-1.5-3.1-10.5 0-17 2.6-29.6 6.5-38.2 2.8-6.1 9.6-15.1 17.3-12.6 7.6 2.6 8.6 15.9 8.6 22.4v28.4c0 9-2.3 10.5-3.2 10.5v1.2h15.8v-1.2c-0.9 0-3.2-1.5-3.2-10.5z"/>
			</g>
		</g>
	</g>
	<g id="Layer">
		<g id="Layer">
			<g id="Layer">
				<path id="Layer" class="s1" d="m20.6 133c-1.5 2.5-3.3 3.3-5.3 3.3-0.6 0-1.5 0-2.2-0.1v-6.6h1.5c2.3 0.1 2.9 1 3.1 2.2h0.4l0.1-4.7h-0.4c-0.3 1.1-0.9 1.8-3.2 1.9h-1.5v-6.1c1-0.1 1.2-0.1 1.8-0.1 2.4 0 3.5 0.7 4.4 3.2l0.4-0.1-0.3-3.6h-9.9v0.4c1.7 0.4 1.7 1.2 1.7 3.1v7.6c0 1.9 0 2.7-1.7 3.1v0.4h10.1l1.4-3.8z"/>
			</g>
		</g>
	</g>
	<g id="Layer">
		<g id="Layer">
			<g id="Layer">
				<path id="Layer" class="s1" d="m44.3 122.1c-0.4 0.1-1 0.2-1.6 0.2h-8.5c-0.5 0-1.1-0.1-1.5-0.2l-0.3 3.9h0.5c0.5-2 1.4-3.2 3.8-3.2h0.8v10.6c0 1.9 0 2.7-1.6 3.1v0.4h5.2v-0.4c-1.7-0.4-1.7-1.2-1.7-3.1v-10.6h0.9c2.4 0 3.2 1.2 3.8 3.2h0.4z"/>
			</g>
		</g>
	</g>
	<g id="Layer">
		<g id="Layer">
			<g id="Layer">
				<path id="Layer" class="s1" d="m69.7 125.8c0-1.9 0-2.7 1.6-3.1v-0.4h-5.2v0.4c1.6 0.4 1.7 1.2 1.7 3.1v3h-7.9v-3c0-1.9 0-2.7 1.6-3.1v-0.4h-5.2v0.4c1.7 0.4 1.7 1.2 1.7 3.1v7.6c0 1.9 0 2.7-1.7 3.1v0.4h5.3v-0.4c-1.7-0.4-1.7-1.2-1.7-3.1v-4h7.9v4c0 1.9 0 2.7-1.7 3.1v0.4h5.3v-0.4c-1.7-0.4-1.7-1.2-1.7-3.1z"/>
			</g>
		</g>
	</g>
	<g id="Layer">
		<g id="Layer">
			<g id="Layer">
				<path id="Layer" class="s1" d="m94.7 133c-1.6 2.5-3.3 3.3-5.4 3.3-0.5 0-1.4 0-2.1-0.1v-6.6h1.5c2.3 0.1 2.9 1 3.1 2.2h0.4v-4.7h-0.3c-0.3 1.1-1 1.8-3.2 1.9h-1.5v-6.1c1-0.1 1.2-0.1 1.8-0.1 2.4 0 3.5 0.7 4.3 3.2l0.4-0.1-0.2-3.6h-9.9v0.4c1.7 0.4 1.7 1.2 1.7 3.1v7.6c0 1.9 0 2.7-1.7 3.1v0.4h10.1l1.4-3.8z"/>
			</g>
		</g>
	</g>
	<g id="Layer">
		<g id="Layer">
			<g id="Layer">
				<path id="Layer" fill-rule="evenodd" class="s1" d="m120.6 136.5v0.4c-0.7 0-1.2 0.1-2.3 0.1-2.2 0-3.2-2-5.7-6.6q-0.5 0-0.9 0-0.5 0-1.1-0.1v3.1c0 1.9 0.1 2.7 1.7 3.1v0.4h-5.2v-0.4c1.6-0.4 1.6-1.2 1.6-3.1v-7.6c0-1.9 0-2.7-1.6-3.1v-0.4h2.7c1.4 0 2.6-0.1 3.1-0.1 3.3 0 4.8 1.7 4.8 3.9 0 1.8-1.2 3.2-3.2 3.9 2.2 4.2 4.4 6.5 6.1 6.5zm-10-6.9q0.7 0.3 1.5 0.3c2.3-0.2 3.6-1.6 3.6-3.6 0-1.7-0.9-3.5-3.3-3.5-0.6 0-1.2 0-1.8 0.1z"/>
			</g>
		</g>
	</g>
	<g id="Layer">
		<g id="Layer">
			<g id="Layer">
				<path id="Layer" class="s1" d="m142.6 133c-1.5 2.5-3.2 3.3-5.3 3.3-0.5 0-1.5 0-2.2-0.1v-6.6h1.6c2.3 0.1 2.8 1 3 2.2h0.4l0.1-4.7h-0.4c-0.2 1.1-0.9 1.8-3.1 1.9h-1.6v-6.1c1-0.1 1.3-0.1 1.9-0.1 2.3 0 3.5 0.7 4.3 3.2l0.4-0.1-0.3-3.6h-9.8v0.4c1.6 0.4 1.6 1.2 1.6 3.1v7.6c0 1.9 0 2.7-1.6 3.1v0.4h10.1l1.3-3.8z"/>
			</g>
		</g>
	</g>
	<g id="Layer">
		<g id="Layer">
			<g id="Layer">
				<path id="Layer" fill-rule="evenodd" class="s1" d="m166.2 133.4c0.9 2.4 1.2 2.7 2.3 3.1v0.4h-5.2v-0.4c1.4-0.3 1.5-1.5 0.9-3l-1.1-3h-4.4c-1.2 3.8-1.6 5.6 0.5 6v0.4h-5v-0.4c1-0.3 1.7-0.9 3.8-6.3l2.9-8h1.1zm-7.3-3.6h3.9l-2.1-5.6z"/>
			</g>
		</g>
	</g>
	<g id="Layer">
		<g id="Layer">
			<g id="Layer">
				<path id="Layer" class="s1" d="m190.8 133c-1.6 2.5-3.3 3.3-5.4 3.3-0.5 0-1 0-1.7-0.1v-10.4c0-1.9 0-2.7 1.7-3.1v-0.4h-5.3v0.4c1.7 0.4 1.8 1.2 1.8 3.1v7.6c0 1.9-0.1 2.7-1.7 3.1v0.4h9.6l1.4-3.8z"/>
			</g>
		</g>
	</g>
	<g id="Layer">
		<g id="Layer">
			<g id="Layer">
				<path id="Layer" class="s1" d="m219 124.8c-0.1-1.5 0.4-1.9 1.7-2.1v-0.4h-3.7c0 0.7-0.5 2.1-0.8 2.6l-4.2 9.1-4.4-9.4c-0.6-1.2-0.7-1.9-0.7-2.3h-3.8v0.4c1.2 0.2 1.7 0.6 1.7 1.6 0 0.5-0.1 1.8-0.3 4l-0.1 1.8c-0.3 5-0.8 6.1-2.1 6.4v0.4h5.2v-0.4c-2-0.3-2.5-2-2.3-6.3l0.2-5.9 4.7 10.3c0.4 0.7 0.6 1.4 0.8 2.1h0.8c0.3-1.3 0.7-2 0.8-2.3l4.7-10.1 0.4 9c0.1 2.3-0.2 2.7-1.8 3.2v0.4h5.3v-0.4c-1.5-0.5-1.5-0.7-1.6-3.2z"/>
			</g>
		</g>
	</g>
	<g id="Layer">
		<g id="Layer">
			<g id="Layer">
				<path id="Layer" class="s1" d="m234.9 133.4c0 1.9 0 2.7-1.6 3.1v0.4h5.2v-0.4c-1.6-0.4-1.7-1.2-1.7-3.1v-7.6c0-1.9 0-2.7 1.7-3.1v-0.4h-5.3v0.4c1.7 0.4 1.7 1.2 1.7 3.1z"/>
			</g>
		</g>
	</g>
	<g id="Layer">
		<g id="Layer">
			<g id="Layer">
				<path id="Layer" class="s1" d="m261 122.7c2.2 0.4 2.6 1.9 2.8 7.2l0.1 4.4-8.9-10.5q-0.6-0.8-1-1.5h-3.1v0.4c1.3 0.3 1.4 0.8 1.4 1.9l-0.1 6.3c0 4.5-0.5 5.3-1.5 5.6v0.4h5.1v-0.4c-1.9-0.4-2.7-1.7-2.8-5.3 0-2-0.1-4.1-0.1-6.8l9.2 10.9c0.7 0.8 1.2 1.3 1.5 1.8h1c-0.1-0.7-0.1-1.7-0.1-3.1v-4.1c0.1-6 0.2-6.8 1.6-7.2v-0.4h-5.1z"/>
			</g>
		</g>
	</g>
	<g id="Layer">
		<g id="Layer">
			<g id="Layer">
				<path id="Layer" fill-rule="evenodd" class="s1" d="m292.8 129.4c0 4.4-3 7.6-8.1 7.6-1.2 0-2.2-0.1-3.8-0.1h-2.8v-0.4c1.7-0.4 1.7-1.2 1.7-3.1v-7.6c0-1.9 0-2.7-1.7-3.1v-0.4h2.8c1.6 0 2.9-0.1 3.7-0.1 5.2 0 8.2 2.9 8.2 7.2zm-2.2 0.5c0-4.2-2.3-7.1-6.3-7.1-0.8 0-1.7 0-2.6 0.2v13.2c1 0.1 1.9 0.2 2.9 0.2 3.9 0 6-2.7 6-6.5z"/>
			</g>
		</g>
	</g>
	<g id="Layer">
		<g id="Layer">
			<g id="Layer">
				<path id="Layer" class="s1" d="m309.3 137.2c3.5 0 5.7-2 5.7-4.6 0-1.9-1.1-3-3.3-3.8-2.5-0.8-4.6-1.6-4.6-3.6 0-1.5 1.2-2.4 2.9-2.4 2 0 3.3 1.2 4.1 3.6h0.4l-0.4-4c-1.1-0.2-2.2-0.4-3.4-0.4-2.9 0-4.9 1.8-4.9 4.1 0 2.1 1.3 3.3 3.8 4.2 2.2 0.8 3.8 1.3 3.8 3.5 0 1.6-1.4 2.7-3.2 2.7-2.2 0-3.8-1.3-4.6-4.1l-0.4 0.1 0.3 4.2c1.3 0.3 2.5 0.5 3.8 0.5z"/>
			</g>
		</g>
	</g>
	<g id="Layer">
		<g id="Layer">
			<g id="Layer">
				<path id="Layer" class="s1" d="m332.2 130.9c3.7-0.1 6.1-1.8 6.1-4.6 0-2.4-1.9-4.1-5-4.1-0.7 0-1.9 0.1-3.3 0.1h-2.7v0.4c1.6 0.4 1.6 1.2 1.6 3.1v7.6c0 1.9 0 2.7-1.6 3.1v0.4h5.2v-0.4c-1.6-0.4-1.7-1.2-1.7-3.1v-10.5c0.6-0.1 1.2-0.1 1.8-0.1 2.4 0 3.6 1.8 3.6 3.8 0 2.1-1.5 3.7-4 3.8z"/>
			</g>
		</g>
	</g>
	<g id="Layer">
		<g id="Layer">
			<g id="Layer">
				<path id="Layer" class="s1" d="m363.7 125.8c0-1.9 0-2.7 1.6-3.1v-0.4h-5.2v0.4c1.7 0.4 1.7 1.2 1.7 3.1v3h-7.9v-3c0-1.9 0-2.7 1.7-3.1v-0.4h-5.3v0.4c1.7 0.4 1.7 1.2 1.7 3.1v7.6c0 1.9 0 2.7-1.6 3.1v0.4h5.2v-0.4c-1.7-0.4-1.7-1.2-1.7-3.1v-4h7.9v4c0 1.9 0 2.7-1.7 3.1v0.4h5.3v-0.4c-1.7-0.4-1.7-1.2-1.7-3.1z"/>
			</g>
		</g>
	</g>
	<g id="Clip-Path" clip-path="url(#cp1)">
		<g id="Layer">
			<g id="Clip-Path" clip-path="url(#cp2)">
				<g id="Layer">
					<g id="Clip-Path" clip-path="url(#cp3)">
						<g id="Layer">
							<path id="Layer" class="s1" d="m386.1 66c1 5.7-3.7 5.5-4.7 0.2-5.4-28.1-36-33.9-68.3-21.9-38 14.2-72.6 43.6-88.5 75.1l-1.4-0.8c15.1-29.8 48.7-60.6 89.3-75.8 33.4-12.4 67.9-6.3 73.6 23.2z"/>
						</g>
					</g>
				</g>
			</g>
		</g>
	</g>
	<g id="Clip-Path" clip-path="url(#cp4)">
		<g id="Layer">
			<g id="Clip-Path" clip-path="url(#cp5)">
				<g id="Layer">
					<g id="Clip-Path" clip-path="url(#cp6)">
						<g id="Layer">
							<path id="Layer" class="s1" d="m-12.8 30.2c0.7-5.7 5.2-4.2 4.5 1.3-3.4 28.4 24 43.3 58.4 41.6 40.6-1.9 82.4-19.3 107.2-44.4l1.1 1.1c-23.5 23.8-64.9 42.8-108.2 44.9-35.5 1.7-66.6-14.6-63-44.5z"/>
						</g>
					</g>
				</g>
			</g>
		</g>
	</g>
	<g id="Layer">
		<g id="Layer">
			<g id="Layer">
				<path id="Layer" class="s1" d="m20.6 133.7c-1.5 2.6-3.3 3.4-5.3 3.4-0.6 0-1.5-0.1-2.2-0.1v-6.7l1.5 0.1c2.3 0 2.9 0.9 3.1 2.1h0.4l0.1-4.6h-0.4c-0.3 1.1-0.9 1.8-3.2 1.9h-1.5v-6.2c1 0 1.2 0 1.8 0 2.4 0 3.5 0.7 4.4 3.1h0.4l-0.3-3.7h-9.9v0.4c1.7 0.4 1.7 1.2 1.7 3.1v7.6c0 1.9 0 2.7-1.7 3.1v0.4h10.1l1.4-3.7z"/>
			</g>
		</g>
	</g>
	<g id="Layer">
		<g id="Layer">
			<g id="Layer">
				<path id="Layer" class="s1" d="m44.3 122.8c-0.4 0.1-1 0.2-1.6 0.2h-8.5c-0.5 0-1.1-0.1-1.5-0.2l-0.3 3.9 0.5 0.1c0.5-2.1 1.4-3.2 3.8-3.2h0.8v10.5c0 1.9 0 2.7-1.6 3.1v0.4h5.2v-0.4c-1.7-0.4-1.7-1.2-1.7-3.1v-10.5h0.9c2.4 0 3.2 1.1 3.8 3.2l0.4-0.1z"/>
			</g>
		</g>
	</g>
	<g id="Layer">
		<g id="Layer">
			<g id="Layer">
				<path id="Layer" class="s1" d="m69.7 126.5c0-1.9 0-2.7 1.6-3.1v-0.4h-5.2v0.4c1.6 0.4 1.7 1.2 1.7 3.1v3.1h-7.9v-3.1c0-1.9 0-2.7 1.6-3.1v-0.4h-5.2v0.4c1.7 0.4 1.7 1.2 1.7 3.1v7.6c0 1.9 0 2.7-1.7 3.1v0.4h5.3v-0.4c-1.7-0.4-1.7-1.2-1.7-3.1v-4h7.9v4c0 1.9 0 2.7-1.7 3.1v0.4h5.3v-0.4c-1.7-0.4-1.7-1.2-1.7-3.1z"/>
			</g>
		</g>
	</g>
	<g id="Layer">
		<g id="Layer">
			<g id="Layer">
				<path id="Layer" class="s1" d="m94.7 133.7c-1.6 2.6-3.3 3.4-5.4 3.4-0.5 0-1.4-0.1-2.1-0.1v-6.7l1.5 0.1c2.3 0 2.9 0.9 3.1 2.1h0.4v-4.6h-0.3c-0.3 1.1-1 1.8-3.2 1.9h-1.5v-6.2c1 0 1.2 0 1.8 0 2.4 0 3.5 0.7 4.3 3.1h0.4l-0.2-3.7h-9.9v0.4c1.7 0.4 1.7 1.2 1.7 3.1v7.6c0 1.9 0 2.7-1.7 3.1v0.4h10.1l1.4-3.7z"/>
			</g>
		</g>
	</g>
	<g id="Layer">
		<g id="Layer">
			<g id="Layer">
				<path id="Layer" fill-rule="evenodd" class="s1" d="m120.6 137.2v0.4c-0.7 0.1-1.2 0.2-2.3 0.2-2.2 0-3.2-2-5.7-6.7q-0.5 0.1-0.9 0.1-0.5 0-1.1-0.1v3c0 1.9 0.1 2.7 1.7 3.1v0.4h-5.2v-0.4c1.6-0.4 1.6-1.2 1.6-3.1v-7.6c0-1.9 0-2.7-1.6-3.1v-0.4h2.7c1.4 0 2.6-0.1 3.1-0.1 3.3 0 4.8 1.8 4.8 3.9 0 1.9-1.2 3.3-3.2 3.9 2.2 4.3 4.4 6.6 6.1 6.5zm-10-6.8q0.7 0.2 1.5 0.2c2.3-0.1 3.6-1.5 3.6-3.5 0-1.8-0.9-3.6-3.3-3.6-0.6 0-1.2 0.1-1.8 0.2z"/>
			</g>
		</g>
	</g>
	<g id="Layer">
		<g id="Layer">
			<g id="Layer">
				<path id="Layer" class="s1" d="m142.6 133.7c-1.5 2.6-3.2 3.4-5.3 3.4-0.5 0-1.5-0.1-2.2-0.1v-6.7l1.6 0.1c2.3 0 2.8 0.9 3 2.1h0.4l0.1-4.6h-0.4c-0.2 1.1-0.9 1.8-3.1 1.9h-1.6v-6.2c1 0 1.3 0 1.9 0 2.3 0 3.5 0.7 4.3 3.1h0.4l-0.3-3.7h-9.8v0.4c1.6 0.4 1.6 1.2 1.6 3.1v7.6c0 1.9 0 2.7-1.6 3.1v0.4h10.1l1.3-3.7z"/>
			</g>
		</g>
	</g>
	<g id="Layer">
		<g id="Layer">
			<g id="Layer">
				<path id="Layer" fill-rule="evenodd" class="s1" d="m166.2 134.1c0.9 2.4 1.2 2.7 2.3 3.1v0.4h-5.2v-0.4c1.4-0.3 1.5-1.5 0.9-3l-1.1-3h-4.4c-1.2 3.8-1.6 5.7 0.5 6v0.4h-5v-0.4c1-0.2 1.7-0.9 3.8-6.3l2.9-8h1.1zm-7.3-3.5h3.9l-2.1-5.7z"/>
			</g>
		</g>
	</g>
	<g id="Layer">
		<g id="Layer">
			<g id="Layer">
				<path id="Layer" class="s1" d="m190.8 133.7c-1.6 2.6-3.3 3.4-5.4 3.4-0.5 0-1-0.1-1.7-0.1v-10.5c0-1.9 0-2.7 1.7-3.1v-0.4h-5.3v0.4c1.7 0.4 1.8 1.2 1.8 3.1v7.6c0 1.9-0.1 2.7-1.7 3.1v0.4h9.6l1.4-3.7z"/>
			</g>
		</g>
	</g>
	<g id="Layer">
		<g id="Layer">
			<g id="Layer">
				<path id="Layer" class="s1" d="m219 125.6c-0.1-1.6 0.4-1.9 1.7-2.2v-0.4h-3.7c0 0.8-0.5 2.1-0.8 2.6l-4.2 9.2-4.4-9.5c-0.6-1.1-0.7-1.8-0.7-2.3h-3.8v0.4c1.2 0.3 1.7 0.7 1.7 1.7 0 0.5-0.1 1.7-0.3 4l-0.1 1.7c-0.3 5-0.8 6.1-2.1 6.4v0.4h5.2v-0.4c-2-0.3-2.5-1.9-2.3-6.3l0.2-5.8 4.7 10.3c0.4 0.7 0.6 1.3 0.8 2h0.8c0.3-1.3 0.7-2 0.8-2.3l4.7-10.1 0.4 9.1c0.1 2.3-0.2 2.6-1.8 3.1v0.4h5.3v-0.4c-1.5-0.4-1.5-0.6-1.6-3.1z"/>
			</g>
		</g>
	</g>
	<g id="Layer">
		<g id="Layer">
			<g id="Layer">
				<path id="Layer" class="s1" d="m234.9 134.1c0 1.9 0 2.7-1.6 3.1v0.4h5.2v-0.4c-1.6-0.4-1.7-1.2-1.7-3.1v-7.6c0-1.9 0-2.7 1.7-3.1v-0.4h-5.3v0.4c1.7 0.4 1.7 1.2 1.7 3.1z"/>
			</g>
		</g>
	</g>
	<g id="Layer">
		<g id="Layer">
			<g id="Layer">
				<path id="Layer" class="s1" d="m261 123.4c2.2 0.4 2.6 2 2.8 7.3l0.1 4.3-8.9-10.5q-0.6-0.7-1-1.5h-3.1v0.4c1.3 0.3 1.4 0.8 1.4 2l-0.1 6.2c0 4.6-0.5 5.4-1.5 5.6v0.4h5.1v-0.4c-1.9-0.3-2.7-1.7-2.8-5.2 0-2-0.1-4.1-0.1-6.8l9.2 10.8c0.7 0.8 1.2 1.4 1.5 1.8h1c-0.1-0.7-0.1-1.7-0.1-3v-4.1c0.1-6.1 0.2-6.9 1.6-7.3v-0.4h-5.1z"/>
			</g>
		</g>
	</g>
	<g id="Layer">
		<g id="Layer">
			<g id="Layer">
				<path id="Layer" fill-rule="evenodd" class="s1" d="m292.8 130.1c0 4.4-3 7.6-8.1 7.6-1.2 0-2.2-0.1-3.8-0.1h-2.8v-0.4c1.7-0.4 1.7-1.2 1.7-3.1v-7.6c0-1.9 0-2.7-1.7-3.1v-0.4h2.8c1.6 0 2.9-0.1 3.7-0.1 5.2 0 8.2 2.9 8.2 7.2zm-2.2 0.5c0-4.1-2.3-7.1-6.3-7.1-0.8 0-1.7 0.1-2.6 0.2v13.2c1 0.2 1.9 0.2 2.9 0.2 3.9 0 6-2.6 6-6.5z"/>
			</g>
		</g>
	</g>
	<g id="Layer">
		<g id="Layer">
			<g id="Layer">
				<path id="Layer" class="s1" d="m309.3 137.9c3.5 0 5.7-1.9 5.7-4.5 0-2-1.1-3.1-3.3-3.8-2.5-0.9-4.6-1.7-4.6-3.7 0-1.4 1.2-2.4 2.9-2.4 2 0 3.3 1.3 4.1 3.7l0.4-0.1-0.4-3.9c-1.1-0.3-2.2-0.4-3.4-0.4-2.9 0-4.9 1.8-4.9 4.1 0 2.1 1.3 3.3 3.8 4.2 2.2 0.7 3.8 1.2 3.8 3.5 0 1.6-1.4 2.6-3.2 2.6-2.2 0-3.8-1.3-4.6-4h-0.4l0.3 4.2c1.3 0.4 2.5 0.5 3.8 0.5z"/>
			</g>
		</g>
	</g>
	<g id="Layer">
		<g id="Layer">
			<g id="Layer">
				<path id="Layer" class="s1" d="m332.2 131.6c3.7 0 6.1-1.8 6.1-4.6 0-2.3-1.9-4.1-5-4.1-0.7 0-1.9 0.1-3.3 0.1h-2.7v0.4c1.6 0.4 1.6 1.2 1.6 3.1v7.6c0 1.9 0 2.7-1.6 3.1v0.4h5.2v-0.4c-1.6-0.4-1.7-1.2-1.7-3.1v-10.4c0.6-0.1 1.2-0.2 1.8-0.2 2.4 0 3.6 1.9 3.6 3.8 0 2.2-1.5 3.7-4 3.8z"/>
			</g>
		</g>
	</g>
	<g id="Layer">
		<g id="Layer">
			<g id="Layer">
				<path id="Layer" class="s1" d="m363.7 126.5c0-1.9 0-2.7 1.6-3.1v-0.4h-5.2v0.4c1.7 0.4 1.7 1.2 1.7 3.1v3.1h-7.9v-3.1c0-1.9 0-2.7 1.7-3.1v-0.4h-5.3v0.4c1.7 0.4 1.7 1.2 1.7 3.1v7.6c0 1.9 0 2.7-1.6 3.1v0.4h5.2v-0.4c-1.7-0.4-1.7-1.2-1.7-3.1v-4h7.9v4c0 1.9 0 2.7-1.7 3.1v0.4h5.3v-0.4c-1.7-0.4-1.7-1.2-1.7-3.1z"/>
			</g>
		</g>
	</g>
</svg>