<svg xmlns="http://www.w3.org/2000/svg" xmlns:xlink="http://www.w3.org/1999/xlink" width="500" zoomAndPan="magnify" viewBox="0 0 375 374.999991" height="500" preserveAspectRatio="xMidYMid meet" version="1.0"><defs><g/><clipPath id="46aac94cd5"><path d="M 1.941406 1.933594 L 373.070312 1.933594 L 373.070312 373.066406 L 1.941406 373.066406 Z M 1.941406 1.933594 " clip-rule="nonzero"/></clipPath><clipPath id="e8896b1e3e"><path d="M 187.507812 1.933594 C 85.023438 1.933594 1.941406 85.015625 1.941406 187.5 C 1.941406 289.984375 85.023438 373.066406 187.507812 373.066406 C 289.992188 373.066406 373.070312 289.984375 373.070312 187.5 C 373.070312 85.015625 289.992188 1.933594 187.507812 1.933594 " clip-rule="nonzero"/></clipPath><clipPath id="fe8fa4050e"><path d="M 299 158 L 375 158 L 375 232 L 299 232 Z M 299 158 " clip-rule="nonzero"/></clipPath><clipPath id="92af467951"><path d="M 440.976562 273.023438 L 280.015625 229.101562 L 309.578125 120.761719 L 470.542969 164.683594 Z M 440.976562 273.023438 " clip-rule="nonzero"/></clipPath><clipPath id="cd194eae2a"><path d="M 280.5 229.234375 L 521.941406 295.117188 L 551.507812 186.777344 L 310.0625 120.894531 Z M 280.5 229.234375 " clip-rule="nonzero"/></clipPath><clipPath id="75e4fdad0b"><path d="M 368 18 L 375 18 L 375 240 L 368 240 Z M 368 18 " clip-rule="nonzero"/></clipPath><clipPath id="791d786f9d"><path d="M 351.371094 38.375 L 568.65625 2.042969 L 604.988281 219.328125 L 387.703125 255.660156 Z M 351.371094 38.375 " clip-rule="nonzero"/></clipPath><clipPath id="731949a16e"><path d="M 460.015625 20.207031 C 400.011719 30.238281 359.503906 87.015625 369.535156 147.015625 C 379.566406 207.019531 436.34375 247.527344 496.34375 237.496094 C 556.347656 227.460938 596.855469 170.6875 586.824219 110.6875 C 576.792969 50.683594 520.015625 10.175781 460.015625 20.207031 " clip-rule="nonzero"/></clipPath><clipPath id="e8300e4052"><path d="M 0 134 L 71 134 L 71 204 L 0 204 Z M 0 134 " clip-rule="nonzero"/></clipPath><clipPath id="ed58cd018a"><path d="M -123.035156 138.605469 L 35.46875 86.5 L 70.539062 193.183594 L -87.964844 245.289062 Z M -123.035156 138.605469 " clip-rule="nonzero"/></clipPath><clipPath id="2a763ee5ba"><path d="M -123.035156 138.605469 L 114.71875 60.449219 L 149.789062 167.132812 L -87.964844 245.289062 Z M -123.035156 138.605469 " clip-rule="nonzero"/></clipPath><clipPath id="371d868007"><path d="M 0 86 L 2 86 L 2 307 L 0 307 Z M 0 86 " clip-rule="nonzero"/></clipPath><clipPath id="a6a6cc2a53"><path d="M -229.988281 98.519531 L -10.859375 75.777344 L 11.882812 294.902344 L -207.246094 317.644531 Z M -229.988281 98.519531 " clip-rule="nonzero"/></clipPath><clipPath id="06d29b53eb"><path d="M -120.425781 87.148438 C -180.933594 93.425781 -224.898438 147.570312 -218.617188 208.082031 C -212.335938 268.59375 -158.191406 312.554688 -97.683594 306.273438 C -37.171875 299.996094 6.789062 245.851562 0.511719 185.339844 C -5.769531 124.828125 -59.914062 80.867188 -120.425781 87.148438 " clip-rule="nonzero"/></clipPath></defs><g clip-path="url(#46aac94cd5)"><g clip-path="url(#e8896b1e3e)"><path fill="#f8eee9" d="M 1.941406 1.933594 L 373.070312 1.933594 L 373.070312 373.066406 L 1.941406 373.066406 Z M 1.941406 1.933594 " fill-opacity="1" fill-rule="nonzero"/></g></g><g fill="#7a504f" fill-opacity="1"><g transform="translate(45.295932, 125.614638)"><g><path d="M 1.417969 -12.980469 C 3.179688 -10.398438 3.160156 -8.386719 2.246094 -6.394531 C 2.015625 -5.890625 1.582031 -4.996094 1.21875 -4.359375 L -5.140625 -7.269531 L -4.425781 -8.722656 C -3.351562 -10.90625 -2.238281 -11.054688 -1 -10.730469 L -0.835938 -11.089844 L -5.292969 -13.207031 L -5.449219 -12.863281 C -4.484375 -12.105469 -4.113281 -11.15625 -5.03125 -8.996094 L -5.664062 -7.511719 L -11.578125 -10.21875 C -11.15625 -11.195312 -11.074219 -11.425781 -10.808594 -12.007812 C -9.765625 -14.28125 -8.59375 -15.035156 -5.871094 -14.761719 L -5.777344 -15.179688 L -9.386719 -16.542969 L -13.71875 -7.085938 L -13.316406 -6.902344 C -12.195312 -8.289062 -11.421875 -7.957031 -9.628906 -7.136719 L -2.328125 -3.792969 C -0.539062 -2.972656 0.21875 -2.601562 -0.0976562 -0.847656 L 0.304688 -0.664062 L 4.738281 -10.339844 L 1.726562 -13.277344 Z M 1.417969 -12.980469 "/></g></g></g><g fill="#7a504f" fill-opacity="1"><g transform="translate(55.903806, 104.41545)"><g><path d="M -6.019531 -19.179688 C -6.15625 -18.816406 -6.421875 -18.253906 -6.75 -17.753906 L -11.707031 -10.257812 C -12.035156 -9.761719 -12.453125 -9.292969 -12.734375 -9.027344 L -9.457031 -6.519531 L -9.175781 -6.863281 C -10.675781 -8.570312 -11.140625 -9.992188 -9.773438 -12.058594 L -9.273438 -12.816406 L -0.0078125 -6.691406 C 1.636719 -5.605469 2.335938 -5.140625 1.742188 -3.4375 L 2.109375 -3.195312 L 5.164062 -7.808594 L 4.792969 -8.050781 C 3.460938 -6.839844 2.769531 -7.242188 1.089844 -8.351562 L -8.175781 -14.476562 L -7.652344 -15.269531 C -6.285156 -17.339844 -4.792969 -17.46875 -2.636719 -16.757812 L -2.429688 -17.152344 Z M -6.019531 -19.179688 "/></g></g></g><g fill="#7a504f" fill-opacity="1"><g transform="translate(69.492126, 85.120255)"><g><path d="M 1.59375 -18.871094 C 0.152344 -20.21875 -0.460938 -20.792969 0.410156 -22.371094 L 0.0859375 -22.671875 L -3.691406 -18.632812 L -3.367188 -18.332031 C -1.851562 -19.304688 -1.238281 -18.792969 0.230469 -17.417969 L 2.574219 -15.226562 L -3.109375 -9.148438 L -5.453125 -11.339844 C -6.890625 -12.6875 -7.503906 -13.261719 -6.632812 -14.839844 L -6.957031 -15.140625 L -10.734375 -11.101562 L -10.410156 -10.800781 C -8.894531 -11.773438 -8.28125 -11.261719 -6.8125 -9.886719 L -0.945312 -4.398438 C 0.492188 -3.054688 1.105469 -2.480469 0.234375 -0.898438 L 0.558594 -0.597656 L 4.339844 -4.636719 L 4.015625 -4.941406 C 2.496094 -3.964844 1.886719 -4.476562 0.414062 -5.855469 L -2.65625 -8.726562 L 3.027344 -14.800781 L 6.097656 -11.929688 C 7.535156 -10.585938 8.152344 -10.011719 7.28125 -8.429688 L 7.601562 -8.128906 L 11.382812 -12.167969 L 11.058594 -12.472656 C 9.542969 -11.496094 8.929688 -12.007812 7.460938 -13.382812 Z M 1.59375 -18.871094 "/></g></g></g><g fill="#7a504f" fill-opacity="1"><g transform="translate(89.251976, 65.526781)"><g><path d="M 7.363281 -10.78125 C 7.703125 -7.671875 6.738281 -5.910156 4.996094 -4.582031 C 4.554688 -4.246094 3.75 -3.660156 3.128906 -3.273438 L -1.109375 -8.835938 L 0.203125 -9.777344 C 2.179688 -11.199219 3.230469 -10.804688 4.171875 -9.9375 L 4.488281 -10.175781 L 1.550781 -14.144531 L 1.253906 -13.914062 C 1.746094 -12.789062 1.625 -11.78125 -0.199219 -10.304688 L -1.457031 -9.292969 L -5.398438 -14.46875 C -4.566406 -15.128906 -4.386719 -15.292969 -3.875 -15.683594 C -1.886719 -17.199219 -0.5 -17.308594 1.773438 -15.785156 L 2.054688 -16.113281 L -0.488281 -19.015625 L -8.761719 -12.714844 L -8.496094 -12.359375 C -6.855469 -13.054688 -6.328125 -12.398438 -5.132812 -10.832031 L -0.265625 -4.441406 C 0.925781 -2.875 1.417969 -2.191406 0.3125 -0.792969 L 0.582031 -0.441406 L 9.050781 -6.890625 L 7.777344 -10.898438 Z M 7.363281 -10.78125 "/></g></g></g><g fill="#7a504f" fill-opacity="1"><g transform="translate(108.55909, 51.804852)"><g><path d="M 4.148438 -10.484375 C 5.683594 -12.109375 6.117188 -14.023438 5.195312 -15.742188 C 4.128906 -17.730469 1.886719 -18.585938 -1.175781 -16.945312 C -1.679688 -16.671875 -2.761719 -16.019531 -4.03125 -15.339844 L -6.566406 -13.980469 L -6.355469 -13.589844 C -4.625 -14.015625 -4.207031 -13.285156 -3.277344 -11.550781 L 0.515625 -4.46875 C 1.445312 -2.734375 1.84375 -1.992188 0.511719 -0.777344 L 0.722656 -0.386719 L 5.597656 -3 L 5.386719 -3.390625 C 3.636719 -2.953125 3.222656 -3.636719 2.273438 -5.410156 L 0.757812 -8.238281 C 1.117188 -8.359375 1.460938 -8.515625 1.773438 -8.683594 C 2.066406 -8.839844 2.328125 -9.007812 2.570312 -9.160156 C 7.25 -6.144531 9.140625 -4.773438 11.246094 -5.902344 C 12.261719 -6.445312 12.640625 -6.726562 13.28125 -7.121094 L 13.074219 -7.507812 C 11.554688 -6.644531 8.347656 -7.664062 4.148438 -10.484375 Z M -2.933594 -15.125 C -2.460938 -15.503906 -1.914062 -15.84375 -1.386719 -16.128906 C 0.875 -17.339844 2.574219 -16.089844 3.441406 -14.472656 C 4.421875 -12.640625 3.984375 -10.695312 1.917969 -9.441406 C 1.375 -9.148438 0.882812 -8.984375 0.390625 -8.921875 Z M -2.933594 -15.125 "/></g></g></g><g fill="#7a504f" fill-opacity="1"><g transform="translate(130.964759, 40.793956)"><g><path d="M 10.363281 -7.941406 C 9.714844 -4.882812 8.246094 -3.511719 6.175781 -2.792969 C 5.652344 -2.613281 4.703125 -2.308594 3.992188 -2.132812 L 1.707031 -8.738281 L 3.246094 -9.226562 C 5.566406 -9.960938 6.445312 -9.253906 7.066406 -8.136719 L 7.441406 -8.265625 L 5.890625 -12.953125 L 5.535156 -12.828125 C 5.652344 -11.605469 5.222656 -10.683594 3.027344 -9.851562 L 1.515625 -9.28125 L -0.609375 -15.429688 C 0.386719 -15.800781 0.609375 -15.898438 1.214844 -16.109375 C 3.578125 -16.925781 4.933594 -16.601562 6.617188 -14.441406 L 6.984375 -14.664062 L 5.472656 -18.214844 L -4.355469 -14.8125 L -4.210938 -14.394531 C -2.433594 -14.542969 -2.136719 -13.753906 -1.496094 -11.894531 L 1.132812 -4.304688 C 1.777344 -2.441406 2.03125 -1.640625 0.546875 -0.65625 L 0.691406 -0.238281 L 10.75 -3.71875 L 10.792969 -7.925781 Z M 10.363281 -7.941406 "/></g></g></g><g fill="#7a504f" fill-opacity="1"><g transform="translate(153.57811, 33.775626)"><g><path d="M 5.359375 -16.679688 L 4.269531 -16.488281 L 2.617188 -7.667969 C 1.5 -1.699219 0.90625 -0.855469 -0.164062 -0.421875 L -0.0859375 0.015625 L 5.078125 -0.886719 L 5.003906 -1.320312 C 2.824219 -1.324219 2.878906 -3.332031 3.457031 -7.5 L 8.035156 -8.273438 L 9.734375 -5.359375 C 10.59375 -3.914062 10.746094 -2.660156 9.339844 -2.078125 L 9.417969 -1.640625 L 14.824219 -2.582031 L 14.746094 -3.019531 C 13.480469 -3.203125 13.160156 -3.484375 11.792969 -5.804688 Z M 4.460938 -14.367188 L 7.6875 -8.863281 L 3.566406 -8.148438 Z M 4.460938 -14.367188 "/></g></g></g><g fill="#7a504f" fill-opacity="1"><g transform="translate(178.908217, 30.310797)"><g><path d="M 11.953125 -4.296875 C 10.3125 -1.59375 8.488281 -0.746094 6.296875 -0.714844 C 5.742188 -0.707031 5.277344 -0.71875 4.546875 -0.777344 L 4.382812 -11.796875 C 4.351562 -13.765625 4.339844 -14.605469 6.082031 -15.074219 L 6.074219 -15.515625 L 0.542969 -15.433594 L 0.550781 -14.992188 C 2.304688 -14.574219 2.359375 -13.777344 2.390625 -11.765625 L 2.511719 -3.734375 C 2.539062 -1.765625 2.53125 -0.921875 0.8125 -0.453125 L 0.820312 -0.0117188 L 10.929688 -0.164062 L 12.355469 -4.144531 Z M 11.953125 -4.296875 "/></g></g></g><g fill="#7a504f" fill-opacity="1"><g transform="translate(201.546946, 30.506907)"><g><path d="M 19.855469 -9.648438 C 20.03125 -11.28125 20.59375 -11.570312 21.945312 -11.621094 L 22.015625 -12.054688 L 18.261719 -12.664062 C 18.132812 -11.878906 17.292969 -10.582031 16.964844 -10.074219 L 11.011719 -1.285156 L 7.996094 -11.863281 C 7.625 -13.15625 7.652344 -13.890625 7.730469 -14.371094 L 3.800781 -15.007812 L 3.730469 -14.570312 C 4.910156 -14.113281 5.339844 -13.59375 5.175781 -12.566406 C 5.089844 -12.042969 4.753906 -10.796875 4.214844 -8.441406 L 3.816406 -6.667969 C 2.644531 -1.523438 1.933594 -0.449219 0.507812 -0.367188 L 0.4375 0.0703125 L 5.902344 0.933594 L 5.96875 0.519531 C 3.921875 -0.125 3.671875 -1.914062 4.585938 -6.453125 L 5.785156 -12.46875 L 8.988281 -0.964844 C 9.21875 -0.164062 9.390625 0.558594 9.433594 1.28125 L 10.238281 1.414062 C 10.808594 0.117188 11.320312 -0.542969 11.496094 -0.804688 L 18.050781 -10.546875 L 16.945312 -1.085938 C 16.660156 1.355469 16.292969 1.675781 14.558594 1.886719 L 14.480469 2.347656 L 20.03125 3.246094 L 20.101562 2.808594 C 18.605469 2.074219 18.621094 1.851562 18.902344 -0.726562 Z M 19.855469 -9.648438 "/></g></g></g><g fill="#7a504f" fill-opacity="1"><g transform="translate(232.15626, 36.861573)"><g><path d="M 3.644531 -2.683594 C 3.023438 -0.816406 2.757812 -0.015625 0.957031 -0.148438 L 0.820312 0.273438 L 6.070312 2.015625 L 6.207031 1.59375 C 4.6875 0.625 4.898438 -0.144531 5.53125 -2.058594 L 8.0625 -9.679688 C 8.683594 -11.550781 8.949219 -12.347656 10.75 -12.214844 L 10.886719 -12.636719 L 5.636719 -14.378906 L 5.496094 -13.960938 C 7.015625 -12.988281 6.808594 -12.21875 6.175781 -10.308594 Z M 3.644531 -2.683594 "/></g></g></g><g fill="#7a504f" fill-opacity="1"><g transform="translate(248.903456, 42.85384)"><g><path d="M 17 -8.175781 C 18.832031 -6.75 18.527344 -5.121094 16.121094 -0.0859375 L 14.148438 4.050781 L 10.804688 -10.050781 C 10.652344 -10.726562 10.566406 -11.339844 10.609375 -11.914062 L 7.667969 -13.40625 L 7.46875 -13.011719 C 8.539062 -12.09375 8.410156 -11.589844 7.839844 -10.515625 L 4.796875 -4.664062 C 2.59375 -0.421875 1.789062 0.140625 0.695312 -0.144531 L 0.492188 0.25 L 5.289062 2.683594 L 5.488281 2.289062 C 3.855469 1.0625 3.824219 -0.589844 5.40625 -3.957031 C 6.308594 -5.882812 7.21875 -7.875 8.511719 -10.421875 L 12.011719 4.207031 C 12.269531 5.257812 12.464844 6 12.511719 6.542969 L 13.4375 7.015625 C 13.71875 6.363281 14.171875 5.375 14.832031 4.121094 L 16.820312 0.292969 C 19.773438 -5.378906 20.253906 -6.03125 21.714844 -5.785156 L 21.917969 -6.179688 L 17.199219 -8.570312 Z M 17 -8.175781 "/></g></g></g><g fill="#7a504f" fill-opacity="1"><g transform="translate(273.113339, 56.17974)"><g><path d="M 15.410156 -7.777344 C 14.773438 -8.257812 13.574219 -9.058594 12.234375 -10.074219 L 9.945312 -11.816406 L 9.675781 -11.460938 C 10.785156 -10.066406 10.292969 -9.382812 9.101562 -7.8125 L 4.242188 -1.417969 C 3.054688 0.152344 2.527344 0.808594 0.882812 0.117188 L 0.617188 0.46875 L 2.90625 2.207031 C 4.300781 3.265625 5.074219 3.964844 6.078125 4.726562 C 10.34375 7.964844 14.898438 7.203125 17.707031 3.5 C 20.464844 -0.128906 19.796875 -4.445312 15.410156 -7.777344 Z M 6.367188 4.167969 C 5.554688 3.550781 4.769531 2.902344 4.050781 2.132812 L 12.480469 -8.972656 C 13.300781 -8.515625 14.136719 -7.964844 14.804688 -7.457031 C 18.136719 -4.925781 18.171875 -0.953125 15.539062 2.519531 C 13.074219 5.761719 9.644531 6.65625 6.367188 4.167969 Z M 6.367188 4.167969 "/></g></g></g><g fill="#7a504f" fill-opacity="1"><g transform="translate(294.473221, 73.746618)"><g><path d="M 3.199219 3.828125 C 5.757812 6.523438 8.789062 6.730469 10.796875 4.828125 C 12.289062 3.410156 12.363281 1.816406 11.375 -0.386719 C 10.207031 -2.9375 9.277344 -5.136719 10.804688 -6.582031 C 11.910156 -7.632812 13.53125 -7.371094 14.71875 -6.117188 C 16.210938 -4.546875 16.175781 -2.652344 14.910156 -0.324219 L 15.246094 -0.0625 L 17.992188 -3.183594 C 17.410156 -4.214844 16.730469 -5.15625 15.832031 -6.105469 C 13.730469 -8.320312 10.855469 -8.585938 9.089844 -6.910156 C 7.484375 -5.386719 7.527344 -3.507812 8.679688 -0.941406 C 9.699219 1.324219 10.488281 2.894531 8.769531 4.523438 C 7.550781 5.679688 5.679688 5.347656 4.433594 4.03125 C 2.804688 2.3125 2.59375 0.132812 4.199219 -2.457031 L 3.84375 -2.730469 L 0.84375 0.570312 C 1.484375 1.792969 2.257812 2.832031 3.199219 3.828125 Z M 3.199219 3.828125 "/></g></g></g><g fill="#7a504f" fill-opacity="1"><g transform="translate(309.215051, 90.366312)"><g><path d="M 8.664062 1.316406 C 10.914062 4.417969 13.84375 5.445312 16.257812 3.757812 C 18.289062 2.339844 18.699219 -0.320312 16.835938 -2.988281 C 16.378906 -3.640625 15.585938 -4.625 14.761719 -5.804688 L 13.113281 -8.160156 L 12.75 -7.90625 C 13.375 -6.238281 12.699219 -5.738281 11.085938 -4.613281 L 4.5 -0.0117188 C 2.886719 1.117188 2.195312 1.597656 0.832031 0.417969 L 0.46875 0.671875 L 3.636719 5.207031 L 4 4.953125 C 3.363281 3.265625 3.988281 2.773438 5.640625 1.621094 L 14.675781 -4.691406 C 15.105469 -4.261719 15.511719 -3.761719 15.851562 -3.273438 C 17.324219 -1.167969 16.480469 0.984375 14.792969 2.164062 C 12.90625 3.484375 10.6875 3.089844 9.058594 0.988281 Z M 8.664062 1.316406 "/></g></g></g><g fill="#7a504f" fill-opacity="1"><g transform="translate(322.015523, 109.881964)"><g><path d="M 16.96875 8.414062 C 18.746094 7.570312 19.507812 7.207031 20.65625 8.597656 L 21.054688 8.410156 L 18.6875 3.410156 L 18.285156 3.597656 C 18.636719 5.367188 17.933594 5.75 16.113281 6.613281 L 13.214844 7.988281 L 9.652344 0.46875 L 12.550781 -0.90625 C 14.328125 -1.75 15.089844 -2.109375 16.238281 -0.71875 L 16.636719 -0.910156 L 14.269531 -5.90625 L 13.867188 -5.71875 C 14.21875 -3.949219 13.515625 -3.566406 11.695312 -2.707031 L 4.4375 0.734375 C 2.660156 1.578125 1.898438 1.941406 0.75 0.550781 L 0.351562 0.738281 L 2.722656 5.738281 L 3.121094 5.550781 C 2.773438 3.78125 3.472656 3.398438 5.292969 2.535156 L 9.089844 0.734375 L 12.65625 8.253906 L 8.855469 10.054688 C 7.078125 10.898438 6.316406 11.257812 5.167969 9.867188 L 4.769531 10.058594 L 7.136719 15.054688 L 7.539062 14.867188 C 7.191406 13.097656 7.890625 12.714844 9.710938 11.851562 Z M 16.96875 8.414062 "/></g></g></g><g fill="#cf8c8a" fill-opacity="0.4"><g transform="translate(63.806071, 234.779164)"><g><path d="M 6.566406 -34.191406 C 20.28125 16.804688 95.421875 7.339844 92.527344 -34.578125 C 91.558594 -48.097656 81.707031 -60.074219 67.222656 -59.6875 C 75.914062 -61.8125 87.503906 -62.390625 96.773438 -62.390625 C 90.59375 -82.867188 66.640625 -99.09375 39.984375 -91.945312 C 14.875 -85.183594 -0.191406 -59.300781 6.566406 -34.191406 Z M 17.964844 -48.097656 C 20.28125 -46.9375 22.988281 -46.550781 25.691406 -46.359375 C 33.03125 -45.78125 42.304688 -47.90625 51.574219 -53.3125 C 70.890625 -64.515625 85.765625 -54.859375 90.015625 -40.757812 C 101.605469 -2.125 34.769531 18.15625 19.703125 -37.667969 C 18.929688 -40.949219 18.351562 -44.429688 17.964844 -48.097656 Z M 81.902344 -63.359375 C 73.015625 -62.777344 61.425781 -60.652344 50.800781 -54.472656 C 41.722656 -49.257812 32.839844 -47.324219 25.691406 -47.710938 C 22.988281 -47.90625 20.28125 -48.484375 17.964844 -49.644531 C 17 -66.640625 22.988281 -85.957031 40.371094 -90.59375 C 59.109375 -95.617188 74.5625 -79.777344 81.902344 -63.359375 Z M 81.902344 -63.359375 "/></g></g></g><g fill="#cf8c8a" fill-opacity="0.4"><g transform="translate(165.403866, 234.779164)"><g><path d="M 141.976562 -57.175781 C 141.976562 -74.5625 137.53125 -93.878906 116.476562 -93.878906 C 103.730469 -93.878906 94.84375 -82.480469 90.015625 -71.855469 C 86.539062 -64.324219 83.832031 -54.859375 82.289062 -43.074219 L 82.289062 -57.175781 C 82.289062 -74.5625 78.039062 -93.878906 56.789062 -93.878906 C 44.042969 -93.878906 35.347656 -82.480469 30.328125 -71.855469 C 27.042969 -64.324219 24.339844 -54.859375 22.601562 -43.074219 L 22.601562 -93.105469 L 4.828125 -93.105469 L 4.828125 -91.367188 C 5.988281 -91.367188 9.273438 -89.046875 9.273438 -76.492188 L 9.273438 -16.613281 C 9.273438 -3.863281 5.988281 -1.738281 4.828125 -1.738281 L 4.828125 0 L 27.042969 0 L 27.042969 -1.738281 C 25.882812 -1.738281 22.601562 -3.863281 22.601562 -16.613281 C 22.601562 -40.949219 26.269531 -58.914062 31.871094 -71.085938 C 35.929688 -79.777344 45.585938 -92.71875 56.597656 -89.046875 C 67.414062 -85.378906 68.765625 -66.449219 68.765625 -57.175781 L 68.765625 -16.613281 C 68.765625 -3.863281 65.484375 -1.738281 64.324219 -1.738281 L 64.324219 0 L 86.730469 0 L 86.730469 -1.738281 C 85.570312 -1.738281 82.289062 -3.863281 82.289062 -16.613281 C 82.289062 -40.949219 85.957031 -58.914062 91.558594 -71.085938 C 95.617188 -79.777344 105.273438 -92.71875 116.285156 -89.046875 C 127.101562 -85.378906 128.453125 -66.449219 128.453125 -57.175781 L 128.453125 -16.613281 C 128.453125 -3.863281 125.171875 -1.738281 124.011719 -1.738281 L 124.011719 0 L 146.417969 0 L 146.417969 -1.738281 C 145.257812 -1.738281 141.976562 -3.863281 141.976562 -16.613281 Z M 141.976562 -57.175781 "/></g></g></g><g fill="#7a504f" fill-opacity="1"><g transform="translate(61.074314, 232.047405)"><g><path d="M 6.566406 -34.191406 C 20.28125 16.804688 95.421875 7.339844 92.527344 -34.578125 C 91.558594 -48.097656 81.707031 -60.074219 67.222656 -59.6875 C 75.914062 -61.8125 87.503906 -62.390625 96.773438 -62.390625 C 90.59375 -82.867188 66.640625 -99.09375 39.984375 -91.945312 C 14.875 -85.183594 -0.191406 -59.300781 6.566406 -34.191406 Z M 17.964844 -48.097656 C 20.28125 -46.9375 22.988281 -46.550781 25.691406 -46.359375 C 33.03125 -45.78125 42.304688 -47.90625 51.574219 -53.3125 C 70.890625 -64.515625 85.765625 -54.859375 90.015625 -40.757812 C 101.605469 -2.125 34.769531 18.15625 19.703125 -37.667969 C 18.929688 -40.949219 18.351562 -44.429688 17.964844 -48.097656 Z M 81.902344 -63.359375 C 73.015625 -62.777344 61.425781 -60.652344 50.800781 -54.472656 C 41.722656 -49.257812 32.839844 -47.324219 25.691406 -47.710938 C 22.988281 -47.90625 20.28125 -48.484375 17.964844 -49.644531 C 17 -66.640625 22.988281 -85.957031 40.371094 -90.59375 C 59.109375 -95.617188 74.5625 -79.777344 81.902344 -63.359375 Z M 81.902344 -63.359375 "/></g></g></g><g fill="#7a504f" fill-opacity="1"><g transform="translate(162.672109, 232.047405)"><g><path d="M 141.976562 -57.175781 C 141.976562 -74.5625 137.53125 -93.878906 116.476562 -93.878906 C 103.730469 -93.878906 94.84375 -82.480469 90.015625 -71.855469 C 86.539062 -64.324219 83.832031 -54.859375 82.289062 -43.074219 L 82.289062 -57.175781 C 82.289062 -74.5625 78.039062 -93.878906 56.789062 -93.878906 C 44.042969 -93.878906 35.347656 -82.480469 30.328125 -71.855469 C 27.042969 -64.324219 24.339844 -54.859375 22.601562 -43.074219 L 22.601562 -93.105469 L 4.828125 -93.105469 L 4.828125 -91.367188 C 5.988281 -91.367188 9.273438 -89.046875 9.273438 -76.492188 L 9.273438 -16.613281 C 9.273438 -3.863281 5.988281 -1.738281 4.828125 -1.738281 L 4.828125 0 L 27.042969 0 L 27.042969 -1.738281 C 25.882812 -1.738281 22.601562 -3.863281 22.601562 -16.613281 C 22.601562 -40.949219 26.269531 -58.914062 31.871094 -71.085938 C 35.929688 -79.777344 45.585938 -92.71875 56.597656 -89.046875 C 67.414062 -85.378906 68.765625 -66.449219 68.765625 -57.175781 L 68.765625 -16.613281 C 68.765625 -3.863281 65.484375 -1.738281 64.324219 -1.738281 L 64.324219 0 L 86.730469 0 L 86.730469 -1.738281 C 85.570312 -1.738281 82.289062 -3.863281 82.289062 -16.613281 C 82.289062 -40.949219 85.957031 -58.914062 91.558594 -71.085938 C 95.617188 -79.777344 105.273438 -92.71875 116.285156 -89.046875 C 127.101562 -85.378906 128.453125 -66.449219 128.453125 -57.175781 L 128.453125 -16.613281 C 128.453125 -3.863281 125.171875 -1.738281 124.011719 -1.738281 L 124.011719 0 L 146.417969 0 L 146.417969 -1.738281 C 145.257812 -1.738281 141.976562 -3.863281 141.976562 -16.613281 Z M 141.976562 -57.175781 "/></g></g></g><g fill="#7a504f" fill-opacity="1"><g transform="translate(18.798054, 241.423802)"><g><path d="M 13.222656 7.652344 C 14.699219 7.0625 15.328125 6.8125 16.183594 7.992188 L 16.515625 7.859375 L 14.867188 3.714844 L 14.535156 3.84375 C 14.722656 5.289062 14.140625 5.558594 12.628906 6.160156 L 10.226562 7.113281 L 7.746094 0.878906 L 10.148438 -0.078125 C 11.625 -0.664062 12.257812 -0.917969 13.109375 0.261719 L 13.441406 0.128906 L 11.792969 -4.015625 L 11.460938 -3.882812 C 11.648438 -2.441406 11.066406 -2.171875 9.554688 -1.570312 L 3.535156 0.824219 C 2.058594 1.410156 1.429688 1.660156 0.574219 0.480469 L 0.242188 0.613281 L 1.894531 4.761719 L 2.222656 4.628906 C 2.035156 3.1875 2.621094 2.914062 4.128906 2.316406 L 7.28125 1.0625 L 9.761719 7.300781 L 6.609375 8.550781 C 5.132812 9.140625 4.5 9.390625 3.648438 8.210938 L 3.316406 8.34375 L 4.964844 12.492188 L 5.296875 12.359375 C 5.109375 10.917969 5.691406 10.644531 7.203125 10.046875 Z M 13.222656 7.652344 "/></g></g></g><g fill="#7a504f" fill-opacity="1"><g transform="translate(28.290103, 263.407329)"><g><path d="M 14.128906 -0.339844 L 13.695312 -1.117188 L 6.535156 -0.0390625 C 1.691406 0.691406 0.890625 0.464844 0.277344 -0.234375 L -0.0351562 -0.0625 L 2.019531 3.636719 L 2.332031 3.460938 C 1.757812 1.800781 3.300781 1.308594 6.628906 0.644531 L 8.433594 3.929688 L 6.664062 5.996094 C 5.789062 7.035156 4.875 7.480469 4.058594 6.566406 L 3.746094 6.738281 L 5.898438 10.609375 L 6.210938 10.4375 C 6.011719 9.421875 6.144531 9.105469 7.550781 7.445312 Z M 12.128906 -0.410156 L 8.792969 3.507812 L 7.152344 0.558594 Z M 12.128906 -0.410156 "/></g></g></g><g fill="#7a504f" fill-opacity="1"><g transform="translate(39.518349, 282.412424)"><g><path d="M 15.214844 0.261719 C 16.019531 1.953125 15.207031 3.019531 11.652344 5.777344 L 8.734375 8.042969 L 11.429688 -3.332031 C 11.5625 -3.875 11.722656 -4.347656 11.960938 -4.746094 L 10.378906 -6.886719 L 10.09375 -6.675781 C 10.535156 -5.625 10.257812 -5.308594 9.457031 -4.742188 L 5.144531 -1.625 C 2.023438 0.636719 1.242188 0.75 0.550781 0.148438 L 0.265625 0.359375 L 2.839844 3.847656 L 3.128906 3.636719 C 2.394531 2.160156 2.96875 0.957031 5.328125 -0.894531 C 6.675781 -1.957031 8.054688 -3.0625 9.910156 -4.429688 L 7.132812 7.378906 C 6.941406 8.230469 6.8125 8.835938 6.648438 9.246094 L 7.148438 9.921875 C 7.585938 9.554688 8.269531 9.007812 9.199219 8.339844 L 12.019531 6.304688 C 16.203125 3.28125 16.78125 2.988281 17.75 3.695312 L 18.035156 3.480469 L 15.5 0.0507812 Z M 15.214844 0.261719 "/></g></g></g><g fill="#7a504f" fill-opacity="1"><g transform="translate(54.219462, 301.217348)"><g><path d="M 13.234375 -4.320312 C 12.789062 -4.78125 11.929688 -5.566406 10.984375 -6.539062 L 9.371094 -8.207031 L 9.113281 -7.960938 C 9.828125 -6.710938 9.351562 -6.226562 8.210938 -5.121094 L 3.558594 -0.613281 C 2.414062 0.492188 1.917969 0.953125 0.691406 0.199219 L 0.433594 0.449219 L 2.050781 2.117188 C 3.03125 3.128906 3.5625 3.78125 4.269531 4.511719 C 7.277344 7.613281 11 7.558594 13.695312 4.953125 C 16.335938 2.394531 16.328125 -1.128906 13.234375 -4.320312 Z M 4.566406 4.101562 C 3.996094 3.511719 3.449219 2.894531 2.96875 2.191406 L 11.046875 -5.632812 C 11.644531 -5.167969 12.242188 -4.628906 12.714844 -4.140625 C 15.0625 -1.71875 14.609375 1.457031 12.082031 3.902344 C 9.722656 6.1875 6.878906 6.484375 4.566406 4.101562 Z M 4.566406 4.101562 "/></g></g></g><g fill="#7a504f" fill-opacity="1"><g transform="translate(71.256804, 317.820789)"><g><path d="M 5.46875 4.710938 C 6.613281 5.621094 7.589844 6.167969 8.855469 6.671875 L 11.617188 4.921875 L 11.429688 4.636719 C 9.335938 5.527344 7.5 5.710938 5.976562 4.5 C 3.65625 2.65625 3.910156 -0.703125 6.128906 -3.496094 C 8.296875 -6.222656 10.929688 -6.867188 13.121094 -5.121094 C 14.644531 -3.910156 14.757812 -1.929688 14.09375 0.371094 L 14.402344 0.5 L 16.304688 -2.410156 C 15.617188 -3.527344 14.699219 -4.554688 13.789062 -5.273438 C 10.6875 -7.738281 6.847656 -7.441406 4.4375 -4.40625 C 2.015625 -1.363281 2.449219 2.3125 5.46875 4.710938 Z M 5.46875 4.710938 "/></g></g></g><g fill="#7a504f" fill-opacity="1"><g transform="translate(89.281216, 331.331772)"><g><path d="M 8.988281 -1.394531 C 10.746094 -0.988281 12.253906 -1.472656 13.070312 -2.8125 C 14.019531 -4.367188 13.703125 -6.277344 11.308594 -7.734375 C 10.914062 -7.976562 10.015625 -8.460938 9.027344 -9.066406 L 7.046875 -10.277344 L 6.859375 -9.972656 C 7.863281 -8.941406 7.523438 -8.351562 6.695312 -6.996094 L 3.320312 -1.464844 C 2.492188 -0.109375 2.140625 0.46875 0.75 0.0390625 L 0.5625 0.34375 L 4.371094 2.667969 L 4.558594 2.363281 C 3.542969 1.324219 3.84375 0.757812 4.691406 -0.628906 L 6.039062 -2.839844 C 6.269531 -2.632812 6.519531 -2.460938 6.765625 -2.3125 C 6.992188 -2.171875 7.214844 -2.058594 7.421875 -1.953125 C 7.238281 2.535156 7.054688 4.410156 8.699219 5.414062 C 9.492188 5.898438 9.839844 6.046875 10.375 6.332031 L 10.5625 6.027344 C 9.339844 5.324219 8.738281 2.675781 8.988281 -1.394531 Z M 9.324219 -8.214844 C 9.78125 -8.042969 10.242188 -7.800781 10.652344 -7.550781 C 12.421875 -6.472656 12.246094 -4.78125 11.472656 -3.515625 C 10.597656 -2.085938 9.066406 -1.597656 7.351562 -2.519531 C 6.925781 -2.78125 6.613281 -3.054688 6.367188 -3.371094 Z M 9.324219 -8.214844 "/></g></g></g><g fill="#7a504f" fill-opacity="1"><g transform="translate(107.979483, 342.056818)"><g><path d="M 11.152344 -8.679688 L 10.339844 -9.050781 L 5.226562 -3.921875 C 1.773438 -0.449219 0.992188 -0.15625 0.0820312 -0.355469 L -0.0664062 -0.03125 L 3.789062 1.71875 L 3.933594 1.394531 C 2.484375 0.402344 3.433594 -0.914062 5.710938 -3.425781 L 9.117188 -1.863281 L 8.921875 0.851562 C 8.839844 2.207031 8.371094 3.109375 7.171875 2.859375 L 7.023438 3.1875 L 11.054688 5.015625 L 11.203125 4.691406 C 10.441406 3.992188 10.355469 3.660156 10.496094 1.488281 Z M 9.5 -7.546875 L 9.152344 -2.414062 L 6.078125 -3.808594 Z M 9.5 -7.546875 "/></g></g></g><g fill="#7a504f" fill-opacity="1"><g transform="translate(128.279699, 350.567046)"><g><path d="M 12.71875 -9.007812 L 4.367188 -11.667969 L 4.257812 -11.328125 C 5.226562 -10.71875 5.300781 -10.1875 5.054688 -9.238281 L 2.84375 -2.222656 C 2.359375 -0.710938 2.15625 -0.0625 0.703125 -0.152344 L 0.59375 0.1875 L 4.847656 1.542969 L 4.957031 1.203125 C 3.71875 0.433594 3.882812 -0.1875 4.375 -1.738281 L 5.351562 -4.816406 L 6.789062 -4.320312 C 8.648438 -3.691406 8.871094 -2.796875 8.730469 -1.773438 L 9.039062 -1.675781 L 10.296875 -5.453125 L 10.007812 -5.546875 C 9.492188 -4.699219 8.765625 -4.292969 6.949219 -4.832031 L 5.496094 -5.257812 L 7.085938 -10.257812 C 7.890625 -10.023438 8.59375 -9.816406 8.949219 -9.703125 C 10.871094 -9.089844 11.875 -7.949219 11.636719 -6.019531 L 11.980469 -5.984375 Z M 12.71875 -9.007812 "/></g></g></g><g fill="#7a504f" fill-opacity="1"><g transform="translate(147.539019, 356.1246)"><g><path d="M 12.46875 -10.367188 C 12.15625 -10.355469 11.652344 -10.382812 11.179688 -10.476562 L 4.070312 -11.878906 C 3.597656 -11.972656 3.121094 -12.140625 2.835938 -12.269531 L 1.96875 -9.054688 L 2.308594 -8.949219 C 3.125 -10.589844 4.042969 -11.375 6.003906 -10.988281 L 6.722656 -10.847656 L 4.988281 -2.054688 C 4.683594 -0.496094 4.550781 0.167969 3.097656 0.246094 L 3.03125 0.597656 L 7.40625 1.460938 L 7.476562 1.109375 C 6.164062 0.488281 6.253906 -0.148438 6.566406 -1.742188 L 8.300781 -10.535156 L 9.050781 -10.386719 C 11.015625 -10 11.566406 -8.925781 11.699219 -7.101562 L 12.054688 -7.066406 Z M 12.46875 -10.367188 "/></g></g></g><g fill="#7a504f" fill-opacity="1"><g transform="translate(167.697892, 359.527018)"><g><path d="M 10.230469 -2.511719 C 8.757812 -0.460938 7.226562 0.078125 5.46875 -0.0625 C 5.023438 -0.0976562 4.222656 -0.179688 3.640625 -0.28125 L 4.089844 -5.902344 L 5.386719 -5.765625 C 7.339844 -5.554688 7.757812 -4.75 7.855469 -3.722656 L 8.175781 -3.695312 L 8.546875 -7.660156 L 8.246094 -7.683594 C 7.9375 -6.742188 7.320312 -6.199219 5.429688 -6.296875 L 4.128906 -6.367188 L 4.546875 -11.597656 C 5.402344 -11.546875 5.601562 -11.550781 6.117188 -11.507812 C 8.125 -11.347656 9.019531 -10.667969 9.566406 -8.527344 L 9.910156 -8.570312 L 9.945312 -11.683594 L 1.582031 -12.355469 L 1.554688 -12 C 2.914062 -11.53125 2.875 -10.855469 2.75 -9.269531 L 2.230469 -2.8125 C 2.105469 -1.226562 2.03125 -0.554688 0.617188 -0.308594 L 0.585938 0.046875 L 9.144531 0.734375 L 10.539062 -2.359375 Z M 10.230469 -2.511719 "/></g></g></g><g fill="#7a504f" fill-opacity="1"><g transform="translate(188.201772, 360.657707)"><g><path d="M 5.546875 -12.769531 C 4.90625 -12.742188 3.75 -12.621094 2.394531 -12.558594 L 0.078125 -12.457031 L 0.09375 -12.101562 C 1.5 -11.804688 1.546875 -11.128906 1.617188 -9.542969 L 1.902344 -3.066406 C 1.972656 -1.480469 1.984375 -0.800781 0.609375 -0.382812 L 0.625 -0.0273438 L 2.941406 -0.128906 C 4.351562 -0.191406 5.191406 -0.15625 6.210938 -0.203125 C 10.523438 -0.390625 12.957031 -3.214844 12.789062 -6.960938 C 12.628906 -10.632812 9.988281 -12.964844 5.546875 -12.769531 Z M 6.097656 -0.699219 C 5.277344 -0.660156 4.457031 -0.660156 3.609375 -0.765625 L 3.117188 -12 C 3.859375 -12.140625 4.660156 -12.230469 5.339844 -12.261719 C 8.707031 -12.410156 10.78125 -9.964844 10.9375 -6.449219 C 11.082031 -3.167969 9.414062 -0.84375 6.097656 -0.699219 Z M 6.097656 -0.699219 "/></g></g></g><g fill="#7a504f" fill-opacity="1"><g transform="translate(211.796947, 358.8514)"><g/></g></g><g fill="#7a504f" fill-opacity="1"><g transform="translate(226.42905, 356.441078)"><g><path d="M 10.53125 -15.511719 C 12.332031 -15.757812 12.925781 -14.90625 12.75 -11.964844 L 12.347656 -5.214844 L 7.464844 -12.554688 C 6.855469 -13.476562 6.808594 -14.242188 7.847656 -14.757812 L 7.753906 -15.101562 L 3.492188 -13.90625 L 3.585938 -13.5625 C 4.609375 -13.550781 4.984375 -13.339844 6.003906 -11.886719 C 6.269531 -11.476562 6.546875 -11.074219 6.804688 -10.683594 L 6.066406 -3.484375 L 0.9375 -10.722656 C 0.296875 -11.617188 0.300781 -12.324219 1.320312 -12.921875 L 1.222656 -13.265625 L -3.039062 -12.070312 L -2.941406 -11.726562 C -1.921875 -11.714844 -1.546875 -11.507812 -0.527344 -10.050781 C 2.285156 -6.054688 5.273438 -1.945312 5.464844 -1.40625 L 6.496094 -1.695312 C 6.371094 -2.140625 6.933594 -6.398438 7.371094 -9.859375 C 9.59375 -6.570312 11.65625 -3.648438 11.789062 -3.183594 L 12.820312 -3.472656 C 12.679688 -3.972656 13.199219 -8.847656 13.523438 -12.3125 C 13.910156 -16.015625 14.117188 -16.335938 15.066406 -16.789062 L 14.96875 -17.132812 L 10.433594 -15.855469 Z M 10.53125 -15.511719 "/></g></g></g><g fill="#7a504f" fill-opacity="1"><g transform="translate(253.929522, 347.646758)"><g><path d="M 0.78125 -3.566406 C 1.398438 -2.101562 1.664062 -1.476562 0.503906 -0.597656 L 0.640625 -0.269531 L 4.753906 -2.003906 L 4.613281 -2.332031 C 3.175781 -2.113281 2.894531 -2.691406 2.261719 -4.1875 L -0.253906 -10.160156 C -0.871094 -11.625 -1.132812 -12.25 0.0273438 -13.125 L -0.113281 -13.453125 L -4.222656 -11.722656 L -4.085938 -11.390625 C -2.648438 -11.609375 -2.363281 -11.03125 -1.734375 -9.535156 Z M 0.78125 -3.566406 "/></g></g></g><g fill="#7a504f" fill-opacity="1"><g transform="translate(268.147396, 341.251885)"><g><path d="M 2.949219 -15.945312 C 2.714844 -15.738281 2.3125 -15.4375 1.890625 -15.207031 L -4.472656 -11.734375 C -4.894531 -11.503906 -5.367188 -11.324219 -5.667969 -11.242188 L -4.28125 -8.21875 L -3.953125 -8.355469 C -4.375 -10.140625 -4.171875 -11.328125 -2.414062 -12.285156 L -1.773438 -12.636719 L 2.519531 -4.773438 C 3.28125 -3.378906 3.605469 -2.78125 2.539062 -1.792969 L 2.710938 -1.480469 L 6.628906 -3.617188 L 6.457031 -3.929688 C 5.046875 -3.570312 4.707031 -4.117188 3.929688 -5.542969 L -0.363281 -13.40625 L 0.3125 -13.773438 C 2.066406 -14.734375 3.175781 -14.261719 4.445312 -12.941406 L 4.742188 -13.144531 Z M 2.949219 -15.945312 "/></g></g></g><g fill="#7a504f" fill-opacity="1"><g transform="translate(285.89445, 330.987351)"><g><path d="M 4.207031 -14.6875 C 3.277344 -15.976562 2.882812 -16.527344 3.816406 -17.640625 L 3.609375 -17.929688 L -0.0117188 -15.324219 L 0.195312 -15.03125 C 1.550781 -15.566406 1.953125 -15.066406 2.902344 -13.75 L 4.414062 -11.648438 L -1.03125 -7.726562 L -2.542969 -9.828125 C -3.472656 -11.117188 -3.867188 -11.664062 -2.933594 -12.78125 L -3.140625 -13.070312 L -6.761719 -10.460938 L -6.554688 -10.171875 C -5.203125 -10.707031 -4.796875 -10.207031 -3.847656 -8.886719 L -0.0625 -3.628906 C 0.867188 -2.339844 1.261719 -1.789062 0.328125 -0.675781 L 0.535156 -0.386719 L 4.15625 -2.992188 L 3.949219 -3.285156 C 2.597656 -2.75 2.191406 -3.25 1.242188 -4.566406 L -0.738281 -7.320312 L 4.707031 -11.242188 L 6.6875 -8.488281 C 7.617188 -7.199219 8.011719 -6.648438 7.078125 -5.535156 L 7.285156 -5.246094 L 10.90625 -7.855469 L 10.699219 -8.144531 C 9.347656 -7.609375 8.941406 -8.109375 7.992188 -9.429688 Z M 4.207031 -14.6875 "/></g></g></g><g fill="#7a504f" fill-opacity="1"><g transform="translate(304.768054, 316.442742)"><g/></g></g><g fill="#7a504f" fill-opacity="1"><g transform="translate(315.445659, 306.381468)"><g><path d="M 4.109375 -9.386719 C 4.78125 -6.925781 4.269531 -5.386719 3.074219 -4.085938 C 2.769531 -3.757812 2.503906 -3.492188 2.066406 -3.09375 L -4.480469 -9.105469 C -5.652344 -10.179688 -6.152344 -10.640625 -5.460938 -11.921875 L -5.722656 -12.160156 L -8.742188 -8.875 L -8.480469 -8.632812 C -7.261719 -9.429688 -6.765625 -9.023438 -5.570312 -7.921875 L -0.796875 -3.542969 C 0.375 -2.46875 0.863281 -1.996094 0.183594 -0.726562 L 0.445312 -0.488281 L 5.964844 -6.496094 L 4.417969 -9.539062 Z M 4.109375 -9.386719 "/></g></g></g><g fill="#7a504f" fill-opacity="1"><g transform="translate(328.449942, 291.523838)"><g><path d="M 4.378906 -5.644531 C 6.410156 -8.496094 5.730469 -12.488281 2.738281 -14.625 C -0.226562 -16.738281 -4.015625 -16.285156 -6.203125 -13.21875 C -8.222656 -10.386719 -7.558594 -6.402344 -4.609375 -4.296875 C -1.6875 -2.214844 2.234375 -2.636719 4.378906 -5.644531 Z M 4.195312 -6.28125 C 2.671875 -3.992188 -0.523438 -3.90625 -3.703125 -5.996094 C -6.4375 -7.816406 -7.460938 -10.410156 -6.019531 -12.585938 C -4.484375 -14.886719 -1.347656 -15.015625 1.75 -12.960938 C 4.566406 -11.105469 5.660156 -8.484375 4.195312 -6.28125 Z M 4.195312 -6.28125 "/></g></g></g><g fill="#7a504f" fill-opacity="1"><g transform="translate(341.934209, 271.423313)"><g><path d="M -6.945312 -12.671875 C -5.945312 -14.0625 -4.550781 -13.867188 -1.796875 -10.722656 L 1.648438 -6.785156 L -7.195312 -7.910156 C -8.277344 -8.042969 -8.972656 -8.597656 -8.523438 -9.710938 L -8.835938 -9.878906 L -10.917969 -5.96875 L -10.601562 -5.800781 C -9.886719 -6.535156 -9.496094 -6.628906 -7.929688 -6.382812 C -4.027344 -5.84375 2.160156 -5.238281 2.777344 -4.914062 L 3.277344 -5.859375 C 2.820312 -6.101562 -0.28125 -9.996094 -1.414062 -11.328125 C -4.976562 -15.464844 -5.0625 -15.835938 -4.816406 -16.675781 L -5.132812 -16.84375 L -7.261719 -12.839844 Z M -6.945312 -12.671875 "/></g></g></g><g fill="#7a504f" fill-opacity="1"><g transform="translate(351.891566, 251.31489)"><g><path d="M 0.503906 -10.519531 C 2.050781 -8.527344 2.132812 -6.90625 1.496094 -5.257812 C 1.335938 -4.84375 1.027344 -4.097656 0.765625 -3.570312 L -4.496094 -5.601562 L -3.992188 -6.804688 C -3.234375 -8.617188 -2.34375 -8.789062 -1.332031 -8.589844 L -1.214844 -8.890625 L -4.910156 -10.375 L -5.019531 -10.089844 C -4.203125 -9.527344 -3.859375 -8.78125 -4.492188 -6.996094 L -4.929688 -5.769531 L -9.824219 -7.660156 C -9.53125 -8.464844 -9.476562 -8.65625 -9.289062 -9.140625 C -8.5625 -11.019531 -7.65625 -11.683594 -5.453125 -11.597656 L -5.394531 -11.941406 L -8.371094 -12.859375 L -11.394531 -5.03125 L -11.0625 -4.90625 C -10.226562 -6.074219 -9.585938 -5.847656 -8.105469 -5.273438 L -2.058594 -2.9375 C -0.578125 -2.367188 0.046875 -2.105469 -0.121094 -0.679688 L 0.210938 -0.550781 L 3.304688 -8.558594 L 0.738281 -10.777344 Z M 0.503906 -10.519531 "/></g></g></g><g clip-path="url(#fe8fa4050e)"><g clip-path="url(#92af467951)"><g clip-path="url(#cd194eae2a)"><path fill="#7a504f" d="M 300.027344 226.828125 C 301.425781 234.867188 307.609375 232.363281 306.285156 224.691406 C 299.324219 184.460938 337.242188 161.289062 386.449219 161.113281 C 444.308594 160.910156 505.144531 182.632812 542.289062 216.601562 L 543.832031 214.933594 C 508.570312 182.6875 448.316406 158.625 386.4375 158.84375 C 335.6875 159.027344 292.683594 184.574219 300.027344 226.828125 Z M 300.027344 226.828125 " fill-opacity="1" fill-rule="nonzero"/></g></g></g><g clip-path="url(#75e4fdad0b)"><g clip-path="url(#791d786f9d)"><g clip-path="url(#731949a16e)"><path fill="#ffffff" d="M 351.371094 38.375 L 568.65625 2.042969 L 604.988281 219.328125 L 387.703125 255.660156 Z M 351.371094 38.375 " fill-opacity="1" fill-rule="nonzero"/></g></g></g><g clip-path="url(#e8300e4052)"><g clip-path="url(#ed58cd018a)"><g clip-path="url(#2a763ee5ba)"><path fill="#7a504f" d="M -103.410156 140.007812 C -102.425781 131.90625 -96.117188 134.089844 -97.050781 141.820312 C -101.941406 182.355469 -62.890625 203.554688 -13.738281 201.210938 C 44.054688 198.453125 103.699219 173.648438 139.058594 137.820312 L 140.683594 139.40625 C 107.121094 173.417969 48.175781 200.53125 -13.632812 203.476562 C -64.328125 205.894531 -108.582031 182.578125 -103.410156 140.007812 Z M -103.410156 140.007812 " fill-opacity="1" fill-rule="nonzero"/></g></g></g><g clip-path="url(#371d868007)"><g clip-path="url(#a6a6cc2a53)"><g clip-path="url(#06d29b53eb)"><path fill="#ffffff" d="M -229.988281 98.519531 L -10.859375 75.777344 L 11.882812 294.902344 L -207.246094 317.644531 Z M -229.988281 98.519531 " fill-opacity="1" fill-rule="nonzero"/></g></g></g></svg>